<?xml version="1.0" encoding="UTF-8"?><svg xmlns="http://www.w3.org/2000/svg" viewBox="0 0 48 48"><g id="a"><path d="m12,20v-1h16v1H12Z" style="fill:none; fill-rule:evenodd; stroke:#f7f8f8; stroke-miterlimit:10; stroke-width:5px;"/><path d="m37,3h1v35h-1V3Z" style="fill:none; fill-rule:evenodd; stroke:#f7f8f8; stroke-miterlimit:10; stroke-width:4px;"/><path d="m28,3v-1h10v1h-10Z" style="fill:none; fill-rule:evenodd; stroke:#f7f8f8; stroke-miterlimit:10; stroke-width:4px;"/><path d="m37,37v1h-9v-1h9Z" style="fill:none; fill-rule:evenodd; stroke:#f7f8f8; stroke-miterlimit:10; stroke-width:4px;"/><path d="m2,3h1v35h-1V3Z" style="fill:none; fill-rule:evenodd; stroke:#f7f8f8; stroke-miterlimit:10; stroke-width:4px;"/><path d="m12,2v1H2v-1h10Z" style="fill:none; fill-rule:evenodd; stroke:#f7f8f8; stroke-miterlimit:10; stroke-width:4px;"/><path d="m3,38v-1h9v1H3Z" style="fill:none; fill-rule:evenodd; stroke:#f7f8f8; stroke-miterlimit:10; stroke-width:4px;"/></g><g id="b"><path d="m12,20v-1h16v1H12Z" style="fill:none; fill-rule:evenodd; stroke:#231815; stroke-miterlimit:10; stroke-width:3px;"/><path d="m37,3h1v35h-1V3Z" style="fill:none; fill-rule:evenodd; stroke:#231815; stroke-miterlimit:10; stroke-width:2px;"/><path d="m28,3v-1h10v1h-10Z" style="fill:none; fill-rule:evenodd; stroke:#231815; stroke-miterlimit:10; stroke-width:2px;"/><path d="m37,37v1h-9v-1h9Z" style="fill:none; fill-rule:evenodd; stroke:#231815; stroke-miterlimit:10; stroke-width:2px;"/><path d="m2,3h1v35h-1V3Z" style="fill:none; fill-rule:evenodd; stroke:#231815; stroke-miterlimit:10; stroke-width:2px;"/><path d="m12,2v1H2v-1h10Z" style="fill:none; fill-rule:evenodd; stroke:#231815; stroke-miterlimit:10; stroke-width:2px;"/><path d="m3,38v-1h9v1H3Z" style="fill:none; fill-rule:evenodd; stroke:#231815; stroke-miterlimit:10; stroke-width:2px;"/></g></svg>